<svg width="22" height="22" viewBox="0 0 22 22" fill="none" xmlns="http://www.w3.org/2000/svg">
<path d="M21.8104 8.60826C21.9132 8.36005 21.9401 8.08692 21.8876 7.82343C21.8352 7.55994 21.7057 7.31793 21.5157 7.12801L14.7256 0.337891L12.8053 2.25814L17.2773 6.73011H0.185216V9.44616H10.3704H20.5556C20.8242 9.44623 21.0867 9.36666 21.3101 9.21752C21.5334 9.06837 21.7075 8.85635 21.8104 8.60826ZM0.288426 13.0001C0.185617 13.2483 0.15874 13.5215 0.211197 13.7849C0.263653 14.0484 0.393085 14.2904 0.583117 14.4804L7.37324 21.2705L9.29349 19.3502L4.82151 14.8783H21.9136V12.1622H1.54324C1.27463 12.162 1.01199 12.2415 0.788603 12.3906C0.565217 12.5398 0.391138 12.7519 0.288426 13.0001Z" fill="url(#paint0_linear_0_103)"/>
<defs>
<linearGradient id="paint0_linear_0_103" x1="11.0494" y1="0.337891" x2="11.0494" y2="21.2705" gradientUnits="userSpaceOnUse">
<stop stop-color="#14F195"/>
<stop offset="0.453125" stop-color="#14F195"/>
<stop offset="0.546875" stop-color="#3790FF"/>
<stop offset="1" stop-color="#3790FF"/>
</linearGradient>
</defs>
</svg>
