<svg width="42" height="42" viewBox="0 0 42 42" fill="none" xmlns="http://www.w3.org/2000/svg">
<rect width="42" height="42" rx="21" fill="white" fill-opacity="0.07"/>
<path d="M29 16V14C29 12.897 28.103 12 27 12H14C12.346 12 11 13.346 11 15V27C11 29.201 12.794 30 14 30H29C30.103 30 31 29.103 31 28V18C31 16.897 30.103 16 29 16ZM27 25H25V21H27V25ZM14 16C13.7425 15.9885 13.4994 15.8781 13.3213 15.6918C13.1431 15.5055 13.0437 15.2577 13.0437 15C13.0437 14.7423 13.1431 14.4945 13.3213 14.3082C13.4994 14.1219 13.7425 14.0115 14 14H27V16H14Z" fill="#F8F8F8"/>
</svg>
