<svg width="522" height="322" viewBox="0 0 522 322" fill="none" xmlns="http://www.w3.org/2000/svg">
<g clip-path="url(#clip0_2_2154)">
<rect width="522" height="322" rx="30" fill="url(#paint0_radial_2_2154)"/>
<path fill-rule="evenodd" clip-rule="evenodd" d="M270.848 -137.149L239.994 -158.61L270.848 -180.072L301.703 -158.611L270.848 -137.149ZM270.848 -118.468L301.703 -97.0071L226.479 -44.6847L195.711 -66.0864L195.625 -66.146L270.848 -118.468ZM131.217 -39.9076L131.131 -39.9672L257.42 -127.809L226.565 -149.27L55.9944 -30.627L42.5661 -39.9672L213.137 -158.61L182.282 -180.072L-32.5716 -30.627L-46 -39.9672L168.854 -189.412L182.282 -198.752L195.711 -189.412L226.565 -167.95L257.42 -189.412L270.848 -198.752L270.848 -198.752L284.277 -189.412L315.131 -167.951L345.985 -189.412L359.413 -198.752L359.414 -198.752L372.842 -189.412L403.697 -167.951L434.551 -189.412L447.979 -198.752L461.408 -189.412L574.414 -110.809L687.421 -189.412L700.849 -198.752L714.277 -189.412L745.132 -167.951L775.987 -189.412L789.415 -198.752L802.843 -189.412L833.698 -167.951L864.552 -189.412L877.98 -198.752L877.98 -198.752L891.409 -189.412L922.263 -167.951L953.118 -189.412L966.546 -198.752L979.975 -189.412L1092.78 -110.946L1205.59 -189.412L1219.02 -198.752L1232.45 -189.412L1263.3 -167.95L1294.16 -189.412L1307.59 -198.752L1321.01 -189.412L1351.87 -167.951L1382.72 -189.412L1396.15 -198.752L1396.15 -198.752L1409.58 -189.412L1440.43 -167.951L1471.29 -189.412L1484.72 -198.752L1484.72 -198.752L1498.15 -189.412L1713 -39.9673L1699.57 -30.627L1484.72 -180.072L1453.86 -158.61L1624.43 -39.9673L1611.01 -30.627L1440.43 -149.27L1409.58 -127.809L1535.87 -39.9673L1535.78 -39.9076L1713 83.3582L1699.57 92.6985L1484.72 -56.746L1453.86 -35.2848L1624.43 83.3582L1611.01 92.6985L1440.43 -25.9445L1409.58 -4.48337L1535.87 83.3582L1535.78 83.4178L1713 206.683L1699.57 216.024L1484.72 66.5793L1453.86 88.0406L1624.43 206.683L1611.01 216.024L1440.43 97.3808L1409.58 118.842L1535.87 206.683L1535.78 206.743L1713 330.009L1699.57 339.349L1484.72 189.905L1453.86 211.366L1624.43 330.009L1611.01 339.349L1440.43 220.706L1409.58 242.167L1535.87 330.009L1535.78 330.069L1713 453.334L1699.57 462.675L1484.72 313.23L1453.86 334.692L1624.43 453.334L1611.01 462.675L1440.43 344.032L1409.58 365.493L1535.87 453.334L1535.78 453.394L1713 576.659L1699.57 586L1484.72 436.555L1453.86 458.017L1624.43 576.659L1611.01 586L1440.43 467.357L1409.58 488.818L1535.87 576.659L1522.44 586L1396.15 498.158L1365.3 519.62L1447.3 576.659L1433.87 586L1351.87 528.96L1269.86 586L1256.44 576.66L1338.44 519.62L1307.59 498.158L1194.78 576.624L1194.83 576.659L1181.4 586L1181.35 585.964L1181.3 586L1167.87 576.66L1167.92 576.624L1137.07 555.163L1106.21 576.624L1106.26 576.659L1092.83 586L1092.78 585.964L1092.73 586L1079.3 576.66L1079.36 576.624L1048.5 555.163L1017.65 576.624L1017.7 576.659L1004.27 586L1004.22 585.964L1004.17 586L990.738 576.66L990.789 576.624L877.981 498.158L847.126 519.62L929.131 576.659L915.703 586L833.698 528.96L751.693 586L738.264 576.66L820.27 519.62L789.415 498.158L663.127 586L662.98 585.898L662.833 586L618.697 555.3L574.561 586L574.414 585.898L574.267 586L530.131 555.3L485.995 586L485.849 585.898L485.702 586L359.414 498.158L328.559 519.62L410.564 576.659L397.136 586L315.131 528.96L233.126 586L219.697 576.66L301.703 519.62L270.848 498.158L144.56 586L131.131 576.66L257.42 488.818L226.565 467.357L55.9944 586L42.566 576.66L213.137 458.017L182.282 436.555L-32.5716 586L-46 576.66L131.217 453.394L131.131 453.335L257.42 365.493L226.565 344.032L55.9944 462.675L42.566 453.335L213.137 334.692L182.282 313.23L-32.5716 462.675L-46 453.335L131.217 330.069L131.131 330.009L257.419 242.167L226.565 220.706L55.9944 339.349L42.566 330.009L213.137 211.366L182.282 189.905L-32.5716 339.349L-46 330.009L131.217 206.743L131.131 206.684L257.42 118.842L226.565 97.3809L55.9944 216.024L42.5661 206.684L213.137 88.0406L182.282 66.5792L-32.5716 216.024L-46 206.684L131.217 83.4177L131.131 83.3582L257.419 -4.48328L226.565 -25.9444L55.9944 92.6985L42.5661 83.3582L213.137 -35.2847L182.282 -56.7461L-32.5716 92.6985L-46 83.3582L131.217 -39.9076ZM1004.22 567.284L1035.07 545.822L922.263 467.357L891.409 488.818L1004.22 567.284ZM1061.93 545.822L1092.78 567.284L1123.64 545.822L1092.78 524.361L1061.93 545.822ZM1079.35 515.021L1048.5 536.482L935.692 458.017L966.547 436.555L1079.35 515.021ZM1106.21 515.021L1137.07 536.482L1249.88 458.016L1219.02 436.555L1106.21 515.021ZM1150.49 545.822L1181.35 567.284L1294.16 488.818L1263.3 467.357L1150.49 545.822ZM1092.78 505.68L1017.61 453.394L1017.7 453.334L1017.65 453.299L1048.5 431.838L1079.35 453.299L1079.3 453.335L1092.73 462.675L1092.78 462.64L1092.83 462.675L1106.26 453.334L1106.21 453.299L1137.07 431.838L1167.92 453.299L1167.87 453.335L1167.95 453.394L1092.78 505.68ZM1181.35 443.959L1294.16 365.493L1263.3 344.032L1150.49 422.497L1181.35 443.959ZM1137.07 413.157L1249.88 334.692L1219.02 313.23L1106.21 391.696L1137.07 413.157ZM1092.78 382.355L1167.96 330.069L1167.87 330.009L1167.92 329.973L1137.07 308.512L1106.21 329.974L1106.26 330.009L1092.83 339.349L1092.78 339.314L1092.73 339.349L1079.3 330.009L1079.35 329.974L1048.5 308.512L1017.65 329.973L1017.7 330.009L1017.61 330.069L1092.78 382.355ZM1004.22 320.633L1035.07 299.172L922.263 220.706L891.409 242.168L1004.22 320.633ZM1061.93 299.172L1092.78 320.633L1123.64 299.172L1092.78 277.711L1061.93 299.172ZM1079.35 268.37L1048.5 289.832L935.692 211.366L966.546 189.905L1079.35 268.37ZM1106.21 268.37L1137.07 289.832L1249.88 211.366L1219.02 189.905L1106.21 268.37ZM1150.49 299.172L1181.35 320.633L1294.16 242.168L1263.3 220.706L1150.49 299.172ZM1092.78 259.03L1017.61 206.743L1017.7 206.683L1017.65 206.648L1048.5 185.187L1079.35 206.648L1079.3 206.684L1092.73 216.024L1092.78 215.988L1092.83 216.024L1106.26 206.683L1106.21 206.648L1137.07 185.187L1167.92 206.648L1167.87 206.684L1167.96 206.743L1092.78 259.03ZM1181.35 197.308L1294.16 118.842L1263.3 97.3809L1150.49 175.846L1181.35 197.308ZM1137.07 166.506L1249.88 88.0406L1219.02 66.5792L1106.21 145.045L1137.07 166.506ZM1092.78 135.705L1167.95 83.4178L1167.87 83.3582L1167.92 83.3226L1137.07 61.8615L1106.21 83.3228L1106.26 83.3582L1092.83 92.6985L1092.78 92.6631L1092.73 92.6985L1079.3 83.3582L1079.35 83.3228L1048.5 61.8615L1017.65 83.3225L1017.7 83.3582L1017.61 83.4178L1092.78 135.705ZM1004.22 73.9823L1035.07 52.5212L922.263 -25.9445L891.409 -4.48335L1004.22 73.9823ZM1061.93 52.5212L1092.78 73.9826L1123.64 52.5212L1092.78 31.0598L1061.93 52.5212ZM1079.35 21.7195L1048.5 43.1809L935.692 -35.2848L966.546 -56.7461L1079.35 21.7195ZM1106.21 21.7195L1137.07 43.1809L1249.87 -35.2847L1219.02 -56.7461L1106.21 21.7195ZM1150.49 52.5212L1181.35 73.9823L1294.16 -4.48325L1263.3 -25.9444L1150.49 52.5212ZM1092.78 12.3792L1017.61 -39.9076L1017.7 -39.9673L1017.65 -40.0029L1048.5 -61.464L1079.35 -40.0026L1079.3 -39.9672L1092.73 -30.627L1092.78 -30.6624L1092.83 -30.627L1106.26 -39.9673L1106.21 -40.0026L1137.07 -61.464L1167.92 -40.0029L1167.87 -39.9672L1167.96 -39.9076L1092.78 12.3792ZM1181.35 -49.3432L1294.16 -127.809L1263.3 -149.27L1150.49 -70.8043L1181.35 -49.3432ZM1137.07 -80.1446L1249.88 -158.61L1219.02 -180.072L1106.21 -101.606L1137.07 -80.1446ZM1079.35 -101.606L966.546 -180.072L935.692 -158.61L1048.5 -80.1446L1079.35 -101.606ZM1061.93 -70.8043L1092.78 -92.2657L1123.64 -70.8043L1092.78 -49.3429L1061.93 -70.8043ZM1035.07 -70.8043L922.263 -149.27L891.409 -127.809L1004.22 -49.3432L1035.07 -70.8043ZM1079.35 145.045L1048.5 166.506L935.692 88.0406L966.546 66.5792L1079.35 145.045ZM1061.93 175.846L1092.78 154.385L1123.64 175.846L1092.78 197.308L1061.93 175.846ZM1035.07 175.846L922.263 97.3809L891.409 118.842L1004.22 197.308L1035.07 175.846ZM1079.35 391.696L1048.5 413.157L935.692 334.692L966.546 313.23L1079.35 391.696ZM1061.93 422.497L1092.78 401.036L1123.64 422.497L1092.78 443.959L1061.93 422.497ZM1035.07 422.497L922.263 344.032L891.409 365.493L1004.22 443.959L1035.07 422.497ZM447.979 -180.072L560.986 -101.468L530.131 -80.007L417.125 -158.61L447.979 -180.072ZM574.414 -92.1281L543.56 -70.6667L574.414 -49.2054L605.269 -70.6667L574.414 -92.1281ZM403.696 -149.27L516.703 -70.6667L485.849 -49.2057L372.842 -127.809L403.696 -149.27ZM530.131 -61.3264L499.191 -39.8056L574.414 12.5168L649.637 -39.8056L618.697 -61.3264L574.561 -30.627L574.414 -30.7292L574.267 -30.627L530.131 -61.3264ZM447.979 -56.7461L560.986 21.8571L530.131 43.3185L417.125 -35.2848L447.979 -56.7461ZM574.414 31.1974L543.56 52.6588L574.414 74.1201L605.269 52.6588L574.414 31.1974ZM403.696 -25.9445L516.703 52.6588L485.849 74.1198L372.842 -4.48338L403.696 -25.9445ZM530.131 61.9991L499.191 83.5198L574.414 135.842L649.637 83.5198L618.697 61.9991L574.561 92.6985L574.414 92.5962L574.267 92.6985L530.131 61.9991ZM447.979 66.5792L560.986 145.182L530.131 166.644L417.125 88.0406L447.979 66.5792ZM574.414 154.523L543.56 175.984L574.414 197.445L605.269 175.984L574.414 154.523ZM403.696 97.3809L516.703 175.984L485.849 197.445L372.842 118.842L403.696 97.3809ZM530.131 185.324L499.191 206.845L574.414 259.168L649.637 206.845L618.697 185.324L574.561 216.024L574.414 215.922L574.267 216.024L530.131 185.324ZM447.979 189.905L560.986 268.508L530.131 289.969L417.125 211.366L447.979 189.905ZM574.414 277.848L543.56 299.31L574.414 320.771L605.269 299.31L574.414 277.848ZM403.697 220.706L516.703 299.31L485.849 320.771L372.842 242.167L403.697 220.706ZM530.131 308.65L499.191 330.171L574.414 382.493L649.637 330.171L618.697 308.65L574.561 339.349L574.414 339.247L574.267 339.349L530.131 308.65ZM447.979 313.23L560.986 391.833L530.131 413.295L417.125 334.692L447.979 313.23ZM574.414 401.174L543.56 422.635L574.414 444.096L605.269 422.635L574.414 401.174ZM403.696 344.032L516.703 422.635L485.849 444.096L372.842 365.493L403.696 344.032ZM530.131 431.975L499.191 453.496L574.414 505.818L649.637 453.496L618.697 431.975L574.561 462.675L574.414 462.573L574.267 462.675L530.131 431.975ZM447.98 436.555L560.986 515.158L530.131 536.62L417.125 458.017L447.98 436.555ZM574.414 524.499L543.56 545.96L574.414 567.421L605.269 545.96L574.414 524.499ZM587.843 515.159L618.697 536.62L731.704 458.016L700.849 436.555L587.843 515.159ZM662.98 567.421L632.126 545.96L745.132 467.357L775.987 488.818L662.98 567.421ZM403.697 467.357L516.703 545.96L485.849 567.421L372.842 488.818L403.697 467.357ZM775.986 365.493L662.98 444.096L632.126 422.635L745.132 344.032L775.986 365.493ZM731.704 334.692L618.697 413.295L587.843 391.833L700.849 313.23L731.704 334.692ZM775.986 242.167L662.98 320.771L632.126 299.31L745.132 220.706L775.986 242.167ZM731.704 211.366L618.697 289.969L587.843 268.508L700.849 189.905L731.704 211.366ZM775.986 118.842L662.98 197.445L632.126 175.984L745.132 97.3808L775.986 118.842ZM731.704 88.0405L618.697 166.644L587.843 145.182L700.849 66.5792L731.704 88.0405ZM775.986 -4.48331L662.98 74.1199L632.126 52.6588L745.132 -25.9445L775.986 -4.48331ZM731.704 -35.2847L618.697 43.3185L587.843 21.8571L700.849 -56.7461L731.704 -35.2847ZM775.986 -127.809L662.98 -49.2055L632.126 -70.6667L745.132 -149.27L775.986 -127.809ZM731.704 -158.61L618.697 -80.007L587.843 -101.468L700.849 -180.072L731.704 -158.61ZM434.637 -66.1461L359.414 -118.469L328.559 -97.0071L403.782 -44.6847L434.551 -66.0864L434.637 -66.1461ZM346.071 -66.1461L315.131 -87.6669L284.191 -66.1461L284.277 -66.0864L315.131 -44.6253L345.985 -66.0864L346.071 -66.1461ZM345.986 -127.809L315.131 -106.347L284.276 -127.809L315.131 -149.27L345.986 -127.809ZM390.268 -158.61L359.414 -137.149L328.559 -158.61L359.414 -180.072L390.268 -158.61ZM195.711 57.239L195.625 57.1795L270.848 4.85706L301.702 26.3184L226.479 78.6407L195.711 57.239ZM284.277 57.239L284.191 57.1793L315.131 35.6586L346.071 57.1794L345.985 57.2389L315.131 78.7L284.277 57.239ZM434.551 57.2389L403.782 78.6407L328.559 26.3183L359.414 4.85689L434.637 57.1793L434.551 57.2389ZM390.268 -35.2847L359.414 -56.746L328.559 -35.2849L359.414 -13.8236L390.268 -35.2847ZM345.986 -4.48338L315.131 -25.9447L284.276 -4.48323L315.131 16.9781L345.986 -4.48338ZM270.848 -56.7462L301.703 -35.285L270.848 -13.8236L239.994 -35.2847L270.848 -56.7462ZM270.848 109.502L239.994 88.0406L270.848 66.5791L301.703 88.0403L270.848 109.502ZM270.848 128.182L301.703 149.644L226.479 201.966L195.711 180.564L195.625 180.505L270.848 128.182ZM434.637 180.505L359.414 128.182L328.559 149.644L403.782 201.966L434.551 180.564L434.637 180.505ZM346.071 180.505L315.131 158.984L284.191 180.505L284.277 180.564L315.131 202.026L345.985 180.564L346.071 180.505ZM345.986 118.842L315.131 140.303L284.276 118.842L315.131 97.3806L345.986 118.842ZM390.268 88.0406L359.414 109.502L328.559 88.0404L359.414 66.5793L390.268 88.0406ZM195.711 303.89L195.625 303.83L270.848 251.508L301.703 272.969L226.479 325.292L195.711 303.89ZM284.277 303.89L284.191 303.83L315.131 282.309L346.071 303.83L345.985 303.89L315.131 325.351L284.277 303.89ZM434.551 303.89L403.782 325.292L328.559 272.969L359.414 251.508L434.637 303.83L434.551 303.89ZM390.268 211.366L359.414 189.905L328.559 211.366L359.414 232.827L390.268 211.366ZM345.986 242.167L315.131 220.706L284.276 242.168L315.131 263.629L345.986 242.167ZM270.848 189.905L301.703 211.366L270.848 232.827L239.994 211.366L270.848 189.905ZM270.848 356.153L239.994 334.692L270.848 313.23L301.703 334.691L270.848 356.153ZM270.848 374.833L301.703 396.295L226.48 448.617L195.711 427.215L195.625 427.156L270.848 374.833ZM434.637 427.155L359.414 374.833L328.559 396.295L403.782 448.617L434.551 427.215L434.637 427.155ZM346.07 427.155L315.131 405.635L284.191 427.156L284.277 427.215L315.131 448.676L345.985 427.215L346.07 427.155ZM345.986 365.493L315.131 386.954L284.276 365.493L315.131 344.032L345.986 365.493ZM390.268 334.692L359.414 356.153L328.559 334.691L359.414 313.23L390.268 334.692ZM359.414 436.555L390.268 458.016L359.414 479.478L328.559 458.016L359.414 436.555ZM315.131 467.357L345.986 488.818L315.131 510.279L284.276 488.818L315.131 467.357ZM301.703 458.016L270.849 436.555L239.994 458.017L270.848 479.478L301.703 458.016ZM789.415 -137.149L758.56 -158.61L789.415 -180.072L820.269 -158.61L789.415 -137.149ZM789.415 -118.468L820.269 -97.0072L745.046 -44.6847L714.277 -66.0864L714.192 -66.146L789.415 -118.468ZM953.204 -66.1461L877.981 -118.469L847.126 -97.0072L922.349 -44.6847L953.118 -66.0864L953.204 -66.1461ZM864.638 -66.1461L833.698 -87.6669L802.758 -66.1461L802.843 -66.0864L833.698 -44.6253L864.552 -66.0864L864.638 -66.1461ZM864.552 -127.809L833.698 -106.347L802.843 -127.809L833.698 -149.27L864.552 -127.809ZM908.835 -158.61L877.981 -137.149L847.126 -158.61L877.98 -180.072L908.835 -158.61ZM714.277 57.239L714.192 57.1794L789.415 4.85701L820.269 26.3183L745.046 78.6407L714.277 57.239ZM802.843 57.239L802.758 57.1793L833.698 35.6586L864.638 57.1793L864.552 57.2389L833.698 78.7L802.843 57.239ZM953.118 57.2389L922.349 78.6407L847.126 26.3183L877.981 4.85695L953.204 57.1793L953.118 57.2389ZM908.835 -35.2847L877.98 -56.746L847.126 -35.2849L877.981 -13.8236L908.835 -35.2847ZM864.552 -4.48332L833.698 -25.9446L802.843 -4.48328L833.698 16.978L864.552 -4.48332ZM789.415 -56.7461L820.269 -35.285L789.415 -13.8236L758.56 -35.2848L789.415 -56.7461ZM789.415 109.502L758.56 88.0406L789.415 66.5792L820.269 88.0403L789.415 109.502ZM789.415 128.182L820.269 149.644L745.046 201.966L714.277 180.564L714.192 180.505L789.415 128.182ZM953.204 180.505L877.981 128.182L847.126 149.644L922.349 201.966L953.118 180.564L953.204 180.505ZM864.638 180.505L833.698 158.984L802.758 180.505L802.843 180.564L833.698 202.026L864.552 180.564L864.638 180.505ZM864.552 118.842L833.698 140.303L802.843 118.842L833.698 97.3806L864.552 118.842ZM908.835 88.0406L877.981 109.502L847.126 88.0404L877.98 66.5793L908.835 88.0406ZM758.56 211.366L789.415 232.827L820.269 211.366L789.415 189.905L758.56 211.366ZM820.269 272.969L789.415 251.508L714.192 303.83L714.277 303.89L745.046 325.292L820.269 272.969ZM877.981 251.508L953.204 303.83L953.118 303.89L922.349 325.292L847.126 272.969L877.981 251.508ZM833.698 282.309L864.638 303.83L864.552 303.89L833.698 325.351L802.843 303.89L802.758 303.83L833.698 282.309ZM833.698 263.629L864.552 242.168L833.698 220.706L802.843 242.168L833.698 263.629ZM877.981 232.827L908.835 211.366L877.98 189.905L847.126 211.366L877.981 232.827ZM789.415 356.153L758.56 334.692L789.415 313.23L820.269 334.691L789.415 356.153ZM789.415 374.833L820.269 396.295L745.047 448.617L714.277 427.215L714.192 427.156L789.415 374.833ZM953.203 427.155L877.981 374.833L847.126 396.295L922.349 448.617L953.118 427.215L953.203 427.155ZM864.638 427.156L833.698 405.635L802.758 427.156L802.843 427.215L833.698 448.676L864.552 427.215L864.638 427.156ZM864.552 365.493L833.698 386.954L802.843 365.493L833.698 344.032L864.552 365.493ZM908.835 334.692L877.981 356.153L847.126 334.691L877.98 313.23L908.835 334.692ZM864.552 488.818L833.698 510.279L802.843 488.818L833.698 467.357L864.552 488.818ZM908.835 458.016L877.981 479.478L847.126 458.016L877.981 436.555L908.835 458.016ZM820.27 458.016L789.415 436.555L758.56 458.017L789.415 479.478L820.27 458.016ZM1276.73 -158.61L1307.59 -137.149L1338.44 -158.61L1307.59 -180.072L1276.73 -158.61ZM1338.44 -97.0072L1307.59 -118.469L1232.36 -66.146L1232.45 -66.0864L1263.22 -44.6847L1338.44 -97.0072ZM1396.15 -118.469L1471.37 -66.1462L1471.29 -66.0864L1440.52 -44.6848L1365.3 -97.0071L1396.15 -118.469ZM1351.87 -87.6668L1382.81 -66.146L1382.72 -66.0864L1351.87 -44.6252L1321.01 -66.0864L1320.93 -66.1461L1351.87 -87.6668ZM1351.87 -106.347L1382.72 -127.809L1351.87 -149.27L1321.01 -127.809L1351.87 -106.347ZM1396.15 -137.149L1427.01 -158.61L1396.15 -180.072L1365.3 -158.61L1396.15 -137.149ZM1232.36 57.1794L1232.45 57.239L1263.22 78.6407L1338.44 26.3183L1307.59 4.85696L1232.36 57.1794ZM1320.93 57.1793L1321.01 57.239L1351.87 78.7001L1382.72 57.2389L1382.81 57.1794L1351.87 35.6586L1320.93 57.1793ZM1440.52 78.6406L1471.29 57.2389L1471.37 57.1792L1396.15 4.85693L1365.3 26.3183L1440.52 78.6406ZM1396.15 -56.7462L1427.01 -35.2849L1396.15 -13.8237L1365.3 -35.285L1396.15 -56.7462ZM1351.87 -25.9447L1382.72 -4.48337L1351.87 16.978L1321.01 -4.48332L1351.87 -25.9447ZM1338.44 -35.2849L1307.59 -56.7461L1276.73 -35.2847L1307.59 -13.8235L1338.44 -35.2849ZM1276.73 88.0406L1307.59 109.502L1338.44 88.0403L1307.59 66.5792L1276.73 88.0406ZM1338.44 149.644L1307.59 128.182L1232.36 180.505L1232.45 180.564L1263.22 201.966L1338.44 149.644ZM1396.15 128.182L1471.37 180.505L1471.29 180.564L1440.52 201.966L1365.3 149.644L1396.15 128.182ZM1351.87 158.984L1382.81 180.505L1382.72 180.564L1351.87 202.026L1321.01 180.564L1320.93 180.505L1351.87 158.984ZM1351.87 140.303L1382.72 118.842L1351.87 97.3806L1321.01 118.842L1351.87 140.303ZM1396.15 109.502L1427.01 88.0404L1396.15 66.5791L1365.3 88.0403L1396.15 109.502ZM1307.59 232.827L1276.73 211.366L1307.59 189.905L1338.44 211.366L1307.59 232.827ZM1307.59 251.508L1338.44 272.969L1263.22 325.292L1232.45 303.89L1232.36 303.83L1307.59 251.508ZM1471.37 303.83L1396.15 251.508L1365.3 272.969L1440.52 325.292L1471.29 303.89L1471.37 303.83ZM1382.81 303.83L1351.87 282.309L1320.93 303.83L1321.01 303.89L1351.87 325.351L1382.72 303.89L1382.81 303.83ZM1382.72 242.167L1351.87 263.629L1321.01 242.168L1351.87 220.706L1382.72 242.167ZM1427.01 211.366L1396.15 232.827L1365.3 211.366L1396.15 189.905L1427.01 211.366ZM1276.73 334.692L1307.59 356.153L1338.44 334.691L1307.59 313.23L1276.73 334.692ZM1338.44 396.295L1307.59 374.833L1232.36 427.156L1232.45 427.215L1263.22 448.617L1338.44 396.295ZM1396.15 374.833L1471.37 427.155L1471.29 427.215L1440.52 448.617L1365.3 396.295L1396.15 374.833ZM1351.87 405.635L1382.81 427.156L1382.72 427.215L1351.87 448.676L1321.01 427.215L1320.93 427.156L1351.87 405.635ZM1351.87 386.954L1382.72 365.493L1351.87 344.032L1321.01 365.493L1351.87 386.954ZM1396.15 356.153L1427.01 334.691L1396.15 313.23L1365.3 334.691L1396.15 356.153ZM1351.87 510.279L1382.72 488.818L1351.87 467.357L1321.01 488.818L1351.87 510.279ZM1396.15 479.478L1427.01 458.016L1396.15 436.555L1365.3 458.016L1396.15 479.478ZM1307.59 436.555L1338.44 458.016L1307.59 479.478L1276.73 458.017L1307.59 436.555Z" fill="url(#paint1_linear_2_2154)" fill-opacity="0.05"/>
<g filter="url(#filter0_b_2_2154)">
<circle cx="460" cy="94" r="104" fill="url(#paint2_linear_2_2154)" fill-opacity="0.06"/>
</g>
<g filter="url(#filter1_b_2_2154)">
<circle cx="-0.272372" cy="270.728" r="104" transform="rotate(-72.2733 -0.272372 270.728)" fill="url(#paint3_linear_2_2154)" fill-opacity="0.06"/>
</g>
<path opacity="0.2" d="M430.79 97.0103L430.625 97.0384L425.53 110.769L416.818 112.26L425.086 92.9444L410.954 77.3947L420.159 75.8195L429.287 86.8452L429.451 86.8171L434.295 73.4004L443.27 71.8645L435.008 91.0097L449.102 106.735L440.16 108.265L430.79 97.0103ZM447.436 72.6745C446.686 68.2911 447.649 64.4266 450.325 61.0812C452.997 57.7138 456.788 55.6101 461.697 54.77C466.409 53.9636 470.508 54.5819 473.993 56.6249C477.5 58.6641 479.584 61.6124 480.244 65.4698C480.698 68.1217 480.382 70.7587 479.297 73.3808C478.23 75.9772 476.281 79.2884 473.451 83.3145L463.7 96.9279L463.728 97.0923L485.755 93.323L486.942 100.26L453.606 105.964L452.627 100.244L467.114 79.8984C469.337 76.6756 470.787 74.2055 471.463 72.4881C472.139 70.7707 472.325 69.0244 472.021 67.2491C471.684 65.2766 470.61 63.7459 468.799 62.6571C467.01 61.5645 464.944 61.2189 462.598 61.6202C460.122 62.044 458.195 63.1746 456.817 65.012C455.462 66.8456 454.985 68.935 455.386 71.2801L455.408 71.4116L447.453 72.7731L447.436 72.6745Z" fill="url(#paint4_linear_2_2154)"/>
</g>
<defs>
<filter id="filter0_b_2_2154" x="332" y="-34" width="256" height="256" filterUnits="userSpaceOnUse" color-interpolation-filters="sRGB">
<feFlood flood-opacity="0" result="BackgroundImageFix"/>
<feGaussianBlur in="BackgroundImage" stdDeviation="12"/>
<feComposite in2="SourceAlpha" operator="in" result="effect1_backgroundBlur_2_2154"/>
<feBlend mode="normal" in="SourceGraphic" in2="effect1_backgroundBlur_2_2154" result="shape"/>
</filter>
<filter id="filter1_b_2_2154" x="-128.3" y="142.7" width="256.056" height="256.056" filterUnits="userSpaceOnUse" color-interpolation-filters="sRGB">
<feFlood flood-opacity="0" result="BackgroundImageFix"/>
<feGaussianBlur in="BackgroundImage" stdDeviation="12"/>
<feComposite in2="SourceAlpha" operator="in" result="effect1_backgroundBlur_2_2154"/>
<feBlend mode="normal" in="SourceGraphic" in2="effect1_backgroundBlur_2_2154" result="shape"/>
</filter>
<radialGradient id="paint0_radial_2_2154" cx="0" cy="0" r="1" gradientUnits="userSpaceOnUse" gradientTransform="translate(-94.4997 144.56) rotate(-14.5242) scale(576.421 4044.63)">
<stop stop-color="#3790FF"/>
<stop offset="0.335696" stop-color="#3790FF"/>
<stop offset="0.666111" stop-color="#3091EB"/>
<stop offset="1" stop-color="#4579FF"/>
</radialGradient>
<linearGradient id="paint1_linear_2_2154" x1="833.5" y1="-8" x2="833.5" y2="226.5" gradientUnits="userSpaceOnUse">
<stop stop-color="white"/>
<stop offset="1" stop-color="white" stop-opacity="0"/>
</linearGradient>
<linearGradient id="paint2_linear_2_2154" x1="452" y1="22.5" x2="390" y2="198" gradientUnits="userSpaceOnUse">
<stop stop-color="white"/>
<stop offset="1" stop-color="white" stop-opacity="0"/>
</linearGradient>
<linearGradient id="paint3_linear_2_2154" x1="-8.27237" y1="199.228" x2="-70.2724" y2="374.728" gradientUnits="userSpaceOnUse">
<stop stop-color="white"/>
<stop offset="1" stop-color="white" stop-opacity="0"/>
</linearGradient>
<linearGradient id="paint4_linear_2_2154" x1="445.919" y1="35.4876" x2="458.989" y2="111.865" gradientUnits="userSpaceOnUse">
<stop stop-color="white"/>
<stop offset="1" stop-color="white" stop-opacity="0"/>
</linearGradient>
<clipPath id="clip0_2_2154">
<rect width="522" height="322" rx="30" fill="white"/>
</clipPath>
</defs>
</svg>
