<svg width="42" height="42" viewBox="0 0 42 42" fill="none" xmlns="http://www.w3.org/2000/svg">
<rect width="42" height="42" rx="21" fill="white" fill-opacity="0.07"/>
<path d="M21 11C19.0222 11 17.0888 11.5865 15.4443 12.6853C13.7998 13.7841 12.5181 15.3459 11.7612 17.1732C11.0043 19.0004 10.8063 21.0111 11.1922 22.9509C11.578 24.8907 12.5304 26.6725 13.9289 28.0711C15.3275 29.4696 17.1093 30.422 19.0491 30.8078C20.9889 31.1937 22.9996 30.9957 24.8268 30.2388C26.6541 29.4819 28.2159 28.2002 29.3147 26.5557C30.4135 24.9112 31 22.9778 31 21C31 18.3478 29.9464 15.8043 28.0711 13.9289C26.1957 12.0536 23.6522 11 21 11ZM20.2785 24.2859C19.888 24.6764 19.2549 24.6763 18.8644 24.2858L16.5772 21.9986C16.2584 21.6798 16.2584 21.163 16.5772 20.8443C16.8886 20.5329 17.3908 20.5246 17.7123 20.8257L18.8132 21.8568C19.1991 22.2182 19.7996 22.2168 20.1838 21.8536L24.2904 17.9711C24.6102 17.6688 25.1123 17.675 25.4245 17.9852C25.7444 18.3032 25.7452 18.8205 25.4262 19.1394L20.2785 24.2859Z" fill="#F8F8F8"/>
</svg>
