<svg width="42" height="42" viewBox="0 0 42 42" fill="none" xmlns="http://www.w3.org/2000/svg">
<rect width="42" height="42" rx="21" fill="white" fill-opacity="0.07"/>
<path d="M29 16H27.791C27.9377 15.5138 28.0082 15.0078 28 14.5C28 12.57 26.43 11 24.5 11C22.878 11 21.795 12.482 21.096 14.085C20.407 12.57 19.269 11 17.5 11C15.57 11 14 12.57 14 14.5C14 15.096 14.079 15.589 14.209 16H13C11.897 16 11 16.897 11 18V20C11 21.103 11.897 22 13 22V29C13 30.103 13.897 31 15 31H27C28.103 31 29 30.103 29 29V22C30.103 22 31 21.103 31 20V18C31 16.897 30.103 16 29 16ZM24.5 13C25.327 13 26 13.673 26 14.5C26 16 25.374 16 25 16H22.522C23.033 14.424 23.775 13 24.5 13ZM16 14.5C16 13.673 16.673 13 17.5 13C18.388 13 19.214 14.525 19.698 16H17C16.626 16 16 16 16 14.5ZM13 18H20V20H13V18ZM15 29V22H20V29H15ZM27 29H22V22H27V29ZM22 20V18.085L22.017 18H29L29.001 20H22Z" fill="#F8F8F8"/>
</svg>
