<svg width="42" height="42" viewBox="0 0 42 42" fill="none" xmlns="http://www.w3.org/2000/svg">
<rect width="42" height="42" rx="21" fill="white" fill-opacity="0.07"/>
<path d="M28.9241 19.383C28.9998 19.2002 29.0196 18.9991 28.981 18.805C28.9424 18.611 28.847 18.4328 28.7071 18.293L23.7071 13.293L22.2931 14.707L25.5861 18H13.0001V20H28.0001C28.1979 20 28.3912 19.9414 28.5557 19.8316C28.7202 19.7218 28.8484 19.5657 28.9241 19.383ZM13.0761 22.617C13.0004 22.7997 12.9806 23.0009 13.0192 23.1949C13.0579 23.3889 13.1532 23.5671 13.2931 23.707L18.2931 28.707L19.7071 27.293L16.4141 24H29.0001V22H14.0001C13.8023 21.9998 13.6089 22.0583 13.4444 22.1682C13.2799 22.278 13.1517 22.4342 13.0761 22.617Z" fill="#F8F8F8"/>
</svg>
